<?xml version="1.0" encoding="UTF-8"?> <svg xmlns="http://www.w3.org/2000/svg" width="50" height="50" viewBox="0 0 50 50" fill="none"> <rect width="50" height="50" rx="25" fill="#0A84FF"></rect> <path d="M11 15.0449C11 15.6145 11.4772 16.0989 12.0337 16.0989H15.5607L17.295 27.9766C17.5421 29.6545 18.4379 30.6888 20.1413 30.6888H33.1699C33.693 30.6888 34.1561 30.2823 34.1561 29.7003C34.1561 29.1204 33.693 28.718 33.1699 28.718H20.3899C19.8447 28.718 19.5094 28.3307 19.4247 27.7487L19.2497 26.5897H33.2527C34.9613 26.5897 35.8611 25.5502 36.1062 23.8571L36.9512 18.2287C36.9735 18.0772 37 17.8901 37 17.7652C37 17.1272 36.5466 16.6793 35.784 16.6793H17.8232L17.6316 15.4493C17.5036 14.4868 17.1116 14 15.8714 14H12.0337C11.4772 14 11 14.4824 11 15.0449ZM19.1045 34.3431C19.1045 35.4301 19.9707 36.2831 21.0537 36.2831C22.1314 36.2831 22.9916 35.4301 22.9916 34.3431C22.9916 33.2694 22.1314 32.4052 21.0537 32.4052C19.9707 32.4052 19.1045 33.2694 19.1045 34.3431ZM29.456 34.3431C29.456 35.4301 30.3295 36.2831 31.4032 36.2831C32.4881 36.2831 33.3503 35.4301 33.3503 34.3431C33.3503 33.2694 32.4881 32.4052 31.4032 32.4052C30.3295 32.4052 29.456 33.2694 29.456 34.3431Z" fill="white"></path> </svg> 