<?xml version="1.0" encoding="UTF-8"?> <svg xmlns="http://www.w3.org/2000/svg" width="50" height="51" viewBox="0 0 50 51" fill="none"> <path d="M24.9977 50.0361C38.6931 50.0361 49.9998 38.7294 49.9998 25.0339C49.9998 11.3628 38.6733 0.0361328 24.9779 0.0361328C11.3068 0.0361328 0 11.3628 0 25.0339C0 38.7294 11.3266 50.0361 24.9977 50.0361Z" fill="#0A84FF"></path> <path d="M23.8499 34.852C21.8703 34.852 21.173 34.2329 21.173 33.1633C21.173 30.0915 25.0784 25.8903 31.2856 25.8903C37.4646 25.8903 41.35 30.0915 41.35 33.1633C41.35 34.2329 40.6768 34.852 38.6929 34.852H23.8499ZM31.2856 23.7961C28.6808 23.7961 26.498 21.4499 26.4738 18.4814C26.4695 15.6053 28.6851 13.3184 31.2856 13.3184C33.8664 13.3184 36.0779 15.5459 36.0779 18.4616C36.0779 21.4499 33.8862 23.7961 31.2856 23.7961ZM10.8898 34.852C9.2999 34.852 8.70361 34.1758 8.70361 32.9903C8.70361 29.7818 12.1487 25.8507 17.4984 25.8507C19.629 25.8507 21.3452 26.4881 22.6811 27.3343C20.0065 29.4139 18.5971 33.0242 19.8555 34.852H10.8898ZM17.4984 24.0334C15.2323 24.0334 13.307 22.0167 13.307 19.4306C13.2871 16.917 15.2565 14.9268 17.4984 14.9268C19.749 14.9268 21.6744 16.8773 21.6744 19.4108C21.6744 22.0167 19.749 24.0334 17.4984 24.0334Z" fill="white"></path> </svg> 