<?xml version="1.0" encoding="UTF-8"?> <svg xmlns="http://www.w3.org/2000/svg" width="40" height="40" viewBox="0 0 40 40" fill="none"> <path d="M19.9977 40C30.954 40 39.9993 30.9613 39.9993 20.0131C39.9993 9.08438 30.9381 0.0297852 19.9818 0.0297852C9.04492 0.0297852 -0.000488281 9.08438 -0.000488281 20.0131C-0.000488281 30.9613 9.06079 40 19.9977 40Z" fill="#0A84FF"></path> <path d="M11.1056 30.0984C10.2123 30.0984 9.79568 29.4995 9.79568 28.7016C9.79568 26.542 13.0137 20.9397 19.9977 20.9397C26.9851 20.9397 30.2031 26.542 30.2031 28.7016C30.2031 29.4995 29.7865 30.0984 28.8932 30.0984H11.1056ZM19.9977 19.3442C17.1851 19.3283 14.8916 16.9592 14.8916 13.7617C14.8916 10.7929 17.1851 8.33057 19.9977 8.33057C22.8138 8.33057 25.1072 10.7929 25.1072 13.7617C25.1072 16.9592 22.8138 19.36 19.9977 19.3442Z" fill="white"></path> </svg> 