<?xml version="1.0" encoding="UTF-8"?> <svg xmlns="http://www.w3.org/2000/svg" width="50" height="50" viewBox="0 0 50 50" fill="none"> <path d="M24.9977 50C38.6931 50 49.9998 38.6932 49.9998 24.9978C49.9998 11.3267 38.6733 0 24.9779 0C11.3068 0 0 11.3267 0 24.9978C0 38.6932 11.3266 50 24.9977 50Z" fill="#0A84FF"></path> <path d="M25.0048 23.2225C29.5147 23.2225 33.8101 22.5408 38 20.7934V19.9533C38 17.5202 36.7509 16.2899 34.2989 16.2899H31.0233V15.21C31.0233 13.0364 29.848 12 27.6846 12H22.3093C20.2515 12 18.9861 13.0364 18.9861 15.21V16.2899H15.7011C13.2585 16.2899 12 17.5202 12 19.9533V20.7934C16.1899 22.5408 20.4854 23.2225 25.0048 23.2225ZM21.07 16.2899V15.2098C21.07 14.3837 21.5386 13.9225 22.3835 13.9225H27.6145C28.4594 13.9225 28.9395 14.3858 28.9395 15.2098V16.2899H21.07ZM15.7011 34.8268H34.2989C36.7509 34.8268 38 33.5872 38 31.1634V22.9497C34.5171 24.2147 31.366 24.8251 28.1805 25.0539V25.9665C28.1805 26.8311 27.6855 27.3084 26.7928 27.3084H23.2072C22.324 27.3084 21.8269 26.8311 21.8269 25.9665V25.0539C18.632 24.8251 15.4809 24.2147 12 22.9497V31.1634C12 33.5872 13.2585 34.8268 15.7011 34.8268Z" fill="white"></path> </svg> 