<?xml version="1.0" encoding="UTF-8"?> <svg xmlns="http://www.w3.org/2000/svg" width="50" height="50" viewBox="0 0 50 50" fill="none"> <path d="M24.9978 50C38.6933 50 50 38.6768 50 25C50 11.3034 38.6734 0 24.978 0C11.3068 0 0 11.3034 0 25C0 38.6768 11.3266 50 24.9978 50Z" fill="#0A84FF"></path> <path d="M11 22.5452C11 23.7107 11.7266 24.4373 12.8962 24.4373H36.4258C37.5934 24.4373 38.3335 23.7107 38.3335 22.5452V21.8684C38.3335 20.7124 37.5934 19.9607 36.4258 19.9607H12.8962C11.7245 19.9607 11 20.7124 11 21.8684V22.5452ZM18.5171 37.161H30.8165C33.6096 37.161 34.4644 35.5075 34.8089 33.799L36.3944 26.0744H12.9485L14.5246 33.799C14.8692 35.5075 15.7219 37.161 18.5171 37.161ZM19.3243 35.0852C18.8552 35.1585 18.5076 34.9114 18.4322 34.4905L17.4556 28.8777C17.3802 28.4568 17.6566 28.1206 18.1257 28.0338C18.5885 27.972 18.9518 28.2097 19.0251 28.6285L19.9924 34.2434C20.0562 34.6622 19.8029 34.9984 19.3243 35.0852ZM22.924 35.0696C22.457 35.0926 22.1115 34.8068 22.0843 34.3743L21.7164 28.8411C21.6913 28.4066 22.0023 28.0956 22.4598 28.0609C22.9384 28.0223 23.2609 28.3217 23.2975 28.7541L23.6654 34.2916C23.6925 34.724 23.3796 35.0444 22.924 35.0696ZM26.4325 35.0696C25.9655 35.0444 25.6545 34.724 25.6797 34.2916L26.0475 28.7541C26.0842 28.3217 26.4088 28.0223 26.8873 28.0609C27.3428 28.0956 27.6537 28.4066 27.6286 28.8411L27.2607 34.3743C27.2336 34.8068 26.888 35.0926 26.4325 35.0696ZM30.0092 35.0852C29.5306 34.9984 29.2773 34.6622 29.3412 34.2434L30.3063 28.6285C30.3816 28.2097 30.7449 27.972 31.2078 28.0338C31.6769 28.1206 31.9533 28.4757 31.878 28.8965L30.9012 34.4905C30.8259 34.9114 30.4626 35.1585 30.0092 35.0852ZM14.7217 20.5538H17.3359L21.3453 13.5883C21.6918 12.977 21.4236 12.41 20.9246 12.1442C20.4474 11.8899 19.8195 11.9452 19.473 12.5261L14.7217 20.5538ZM31.9976 20.5538H34.6119L29.8605 12.5261C29.5276 11.9588 28.9018 11.9014 28.411 12.14C27.9194 12.41 27.6418 12.977 27.9882 13.5883L31.9976 20.5538Z" fill="white"></path> </svg> 