<?xml version="1.0" encoding="UTF-8"?> <svg xmlns="http://www.w3.org/2000/svg" width="50" height="50" viewBox="0 0 50 50" fill="none"> <path d="M24.9968 49.9999C38.6921 49.9999 49.9988 38.7015 49.9988 25.0163C49.9988 11.3554 38.6723 0.0371094 24.9769 0.0371094C11.3058 0.0371094 -0.000976562 11.3554 -0.000976562 25.0163C-0.000976562 38.7015 11.3256 49.9999 24.9968 49.9999Z" fill="#F04634"></path> <path d="M12.4441 31.4899C11.6333 31.4899 11 30.8745 11 30.1432C11 29.3944 11.6333 28.7636 12.4441 28.7636H15.2168C16.0319 28.7636 16.661 29.3748 16.661 30.1432C16.661 30.8984 16.0319 31.4899 15.2168 31.4899H12.4441ZM17.1468 24.5691L15.1707 22.5823C14.5783 21.9686 14.5826 21.1306 15.0884 20.5804C15.618 20.0697 16.4697 20.0303 17.0664 20.6285L19.0383 22.6198C19.5917 23.1984 19.6502 24.0738 19.1249 24.613C18.5953 25.1631 17.724 25.1194 17.1468 24.5691ZM24.9999 11C25.7481 11 26.3576 11.6636 26.3576 12.443V16.7114L26.2863 17.5508L26.5184 17.338L27.8802 15.8844C28.0962 15.6336 28.4659 15.4462 28.8395 15.4462C29.5205 15.4462 30.0239 15.9743 30.0239 16.6422C30.0239 17.0261 29.9011 17.325 29.5747 17.6503L25.9336 21.0888C25.6224 21.3747 25.3197 21.5035 24.9999 21.5035C24.6802 21.5035 24.3777 21.3747 24.0664 21.0888L20.4253 17.6503C20.1184 17.325 19.9762 17.0261 19.9762 16.6422C19.9762 15.9743 20.4796 15.4462 21.1606 15.4462C21.5341 15.4462 21.8843 15.6336 22.1393 15.9041L23.6419 17.4211L23.7138 17.4917L23.6425 16.7114V12.443C23.6425 11.6636 24.252 11 24.9999 11ZM30.9185 24.613C30.3693 24.0738 30.3888 23.2181 30.9812 22.6198L32.9337 20.6285C33.5304 20.05 34.382 20.0303 34.9117 20.5804C35.4175 21.1306 35.4022 21.9686 34.8293 22.5823L32.8728 24.5691C32.2803 25.1391 31.4437 25.1434 30.9185 24.613ZM34.8027 31.4899C33.9918 31.4899 33.3391 30.8984 33.3391 30.1432C33.3391 29.3748 33.9918 28.7636 34.8027 28.7636H37.5559C38.3948 28.7636 39 29.3748 39 30.1432C39 30.8745 38.3948 31.4899 37.5559 31.4899H34.8027ZM31.7555 30.5415C31.7555 31.2214 31.6341 31.9229 31.4025 32.5505H18.5976C18.3659 31.9229 18.2446 31.2214 18.2446 30.5415C18.2446 26.8237 21.3185 23.7394 24.9999 23.7394C28.7011 23.7394 31.7555 26.8237 31.7555 30.5415ZM12.4846 37C11.7133 37 11 36.361 11 35.5753C11 34.7854 11.6852 34.1463 12.4846 34.1463H37.5155C38.3343 34.1463 39 34.7811 39 35.5753C39 36.3653 38.3148 37 37.5155 37H12.4846Z" fill="white"></path> </svg> 