<?xml version="1.0" encoding="UTF-8"?> <svg xmlns="http://www.w3.org/2000/svg" width="50" height="50" viewBox="0 0 50 50" fill="none"> <path d="M24.9972 50.0002C38.6926 50.0002 49.9993 38.7018 49.9993 25.0164C49.9993 11.3554 38.6728 0.0371094 24.9774 0.0371094C11.3063 0.0371094 -0.000488281 11.3554 -0.000488281 25.0164C-0.000488281 38.7018 11.3261 50.0002 24.9972 50.0002Z" fill="#F04634"></path> <path d="M14.5405 37.972C13.49 37.972 13 37.2572 13 36.3049C13 33.7273 16.7845 27.0407 24.998 27.0407C33.2154 27.0407 37 33.7273 37 36.3049C37 37.2572 36.51 37.972 35.4595 37.972H14.5405ZM24.998 25.1364C21.6902 25.1175 18.9931 22.2898 18.9931 18.4735C18.9931 14.9301 21.6902 11.9912 24.998 11.9912C28.3098 11.9912 31.007 14.9301 31.007 18.4735C31.007 22.2898 28.3098 25.1553 24.998 25.1364Z" fill="white"></path> </svg> 