<?xml version="1.0" encoding="UTF-8"?> <svg xmlns="http://www.w3.org/2000/svg" width="50" height="50" viewBox="0 0 50 50" fill="none"> <path d="M24.9968 49.9999C38.6921 49.9999 49.9988 38.7015 49.9988 25.0163C49.9988 11.3554 38.6723 0.0371094 24.9769 0.0371094C11.3058 0.0371094 -0.000976562 11.3554 -0.000976562 25.0163C-0.000976562 38.7015 11.3256 49.9999 24.9968 49.9999Z" fill="#0A84FF"></path> <path d="M25.7962 36.9798C32.3918 36.9798 37.8563 31.5169 37.8563 24.9185C37.8563 18.3106 32.3918 12.8572 25.7962 12.8572C19.2016 12.8572 13.7571 18.28 13.734 24.869H16.1097C16.1328 19.5111 20.4326 15.2427 25.7962 15.2427C31.1703 15.2427 35.4807 19.5438 35.4807 24.9185C35.4807 30.2931 31.1703 34.6252 25.7962 34.6039C22.6558 34.5944 19.9156 33.1238 18.1524 30.8133C17.6833 30.2672 17.0043 30.0945 16.434 30.4956C15.9019 30.88 15.8029 31.6273 16.3091 32.2504C18.4707 35.0744 22.0066 36.9798 25.7962 36.9798ZM12.3274 22.5409C11.4153 22.5409 11.1905 23.2287 11.6815 23.9162L14.5132 27.8394C14.9069 28.3766 15.5157 28.367 15.8998 27.8394L18.7294 23.9066C19.2088 23.2308 18.986 22.5409 18.0856 22.5409H12.3274Z" fill="white"></path> <path d="M25.7991 30.5273C28.307 30.5273 30.1083 29.1777 30.1083 27.2373C30.1083 25.6488 29.2156 24.7878 27.0276 24.2886L25.3676 23.9051C24.1083 23.6075 23.5899 23.1879 23.5899 22.4665C23.5899 21.5656 24.4292 20.964 25.6974 20.964C26.8203 20.964 27.5318 21.4369 27.9362 22.4443C28.1629 22.8677 28.4845 23.0672 28.8471 23.0672C29.5067 23.0672 29.8676 22.4796 29.6511 21.7769C29.3199 20.577 27.9378 19.3344 25.7016 19.3344C23.2936 19.3344 21.6112 20.6585 21.6112 22.5597C21.6112 24.1258 22.6239 25.0856 24.7101 25.5604L26.3776 25.9447C27.6221 26.2273 28.0978 26.6268 28.0978 27.4057C28.0978 28.3195 27.2023 28.9019 25.8034 28.9019C24.5235 28.9019 23.7408 28.4112 23.3394 27.4281C23.1348 27.0269 22.7986 26.8212 22.4359 26.8212C21.7901 26.8212 21.4371 27.3567 21.5886 28.0656C21.873 29.4051 23.4723 30.5273 25.7991 30.5273ZM25.1061 31.6064C25.1061 31.9896 25.415 32.3081 25.7982 32.3081C26.1772 32.3081 26.4978 31.9896 26.4978 31.6064V18.2382C26.4978 17.8592 26.1772 17.5386 25.7982 17.5386C25.415 17.5386 25.1061 17.8592 25.1061 18.2382V31.6064Z" fill="white"></path> </svg> 