<?xml version="1.0" encoding="UTF-8"?> <svg xmlns="http://www.w3.org/2000/svg" width="50" height="50" viewBox="0 0 50 50" fill="none"> <path d="M24.9977 50C38.6931 50 49.9998 38.6932 49.9998 24.9978C49.9998 11.3267 38.6733 0 24.9779 0C11.3068 0 0 11.3267 0 24.9978C0 38.6932 11.3266 50 24.9977 50Z" fill="#F04634"></path> <path d="M12.0001 16.0765C12.0001 14.7265 12.9083 13.8238 14.3561 13.8238H17.4654C17.7735 12.6042 18.7258 11.9258 20.197 11.9258H29.4934C30.9605 11.9258 31.9168 12.6042 32.2249 13.8238H35.3342C36.7821 13.8238 37.686 14.7265 37.686 16.0765C37.686 20.7579 34.2311 23.9002 29.5896 25.3714C28.8937 26.2619 28.0748 27.0232 27.2478 27.5016V32.0091H28.8835C30.6051 32.0091 31.6262 33.0659 31.6262 34.7475V36.7283C31.6262 37.381 31.0994 37.9258 30.4038 37.9258H19.2865C18.591 37.9258 18.0601 37.381 18.0601 36.7283V34.7475C18.0601 33.0659 19.0852 32.0091 20.8068 32.0091H22.4425V27.5016C21.6155 27.0232 20.7967 26.2619 20.1007 25.3714C15.4592 23.9002 12.0189 20.7579 12.0001 16.0765ZM17.3637 16.2153H14.5056C14.391 16.2153 14.2951 16.3027 14.2951 16.4295C14.3139 18.9272 16.2487 20.9983 18.1357 22.0923C17.6287 20.8301 17.3637 19.493 17.3637 18.1599V16.2153ZM32.3454 16.2153V18.1599C32.3454 19.493 32.0616 20.8301 31.5733 22.0923C33.4604 20.9983 35.3723 18.9272 35.3911 16.4295C35.3911 16.3027 35.2953 16.2153 35.1847 16.2153H32.3454Z" fill="white"></path> </svg> 