<?xml version="1.0" encoding="UTF-8"?> <svg xmlns="http://www.w3.org/2000/svg" width="50" height="50" viewBox="0 0 50 50" fill="none"> <path d="M24.9977 50C38.6931 50 49.9998 38.6932 49.9998 24.9978C49.9998 11.3267 38.6733 0 24.9779 0C11.3068 0 0 11.3267 0 24.9978C0 38.6932 11.3266 50 24.9977 50Z" fill="#0A84FF"></path> <path d="M20.3436 30.4724C18.4273 30.4724 17.3159 29.5505 17.061 27.8205L15.4336 16.4457H12.2319C11.5207 16.4457 11 15.9292 11 15.2148C11 14.4794 11.5207 13.9629 12.2319 13.9629H15.8229C16.8856 13.9629 17.6336 14.5978 17.778 15.5632L17.9551 16.8556H34.8561C35.5932 16.8556 36 17.2885 36 17.8867C36 17.9891 35.9791 18.1774 35.9373 18.3141L35.1433 23.7784C34.9054 25.3883 34.0553 26.3616 32.4174 26.3616H19.367L19.4544 27.1736C19.5269 27.76 19.9174 28.1009 20.4832 28.1009H31.949C32.6414 28.1009 33.1261 28.5626 33.1261 29.2694C33.1261 30.0181 32.6414 30.4724 31.949 30.4724H20.3436ZM20.7726 35.7824C19.6863 35.7824 18.8019 34.927 18.8019 33.8168C18.8019 32.6934 19.6863 31.8305 20.7726 31.8305C21.8797 31.8305 22.7566 32.6934 22.7566 33.8168C22.7566 34.927 21.8797 35.7824 20.7726 35.7824ZM30.1948 35.7824C29.1011 35.7824 28.1897 34.927 28.1897 33.8168C28.1897 32.6934 29.1011 31.8305 30.1948 31.8305C31.2982 31.8305 32.1788 32.6934 32.1788 33.8168C32.1788 34.927 31.2982 35.7824 30.1948 35.7824Z" fill="white"></path> </svg> 