<?xml version="1.0" encoding="UTF-8"?> <svg xmlns="http://www.w3.org/2000/svg" width="50" height="50" viewBox="0 0 50 50" fill="none"> <path d="M24.9973 50C38.6928 50 49.9995 38.6768 49.9995 25C49.9995 11.3034 38.6729 0 24.9775 0C11.3063 0 -0.000488281 11.3034 -0.000488281 25C-0.000488281 38.6768 11.3262 50 24.9973 50Z" fill="#0A84FF"></path> <path d="M18.6712 26.8077H24.9775C25.6835 26.8077 26.2784 26.279 26.2784 25.5681V17.3333C26.2784 16.6267 25.7028 16.0743 24.9775 16.0743C24.2715 16.0743 23.7194 16.6267 23.7194 17.3333V24.3134H18.6712C17.9458 24.3134 17.398 24.8465 17.398 25.5681C17.398 26.2983 17.9458 26.8077 18.6712 26.8077ZM24.9968 38C17.8969 38 12 32.1142 12 25.0096C12 17.905 17.8776 12 24.9775 12C32.0966 12 37.9978 17.905 37.9978 25.0096C37.9978 32.1142 32.0966 38 24.9968 38Z" fill="white"></path> </svg> 