<?xml version="1.0" encoding="UTF-8"?> <svg xmlns="http://www.w3.org/2000/svg" width="27" height="30" viewBox="0 0 27 30" fill="none"> <path d="M5.73246 10.1672L13.2654 4.4391L20.7984 10.1672H26.5307L13.2654 0L0 10.1672H5.73246Z" fill="url(#paint0_linear_392_4600)"></path> <path d="M23.0605 5.33438V0H18.7222V2.01095L23.0605 5.33438Z" fill="url(#paint1_linear_392_4600)"></path> <path d="M6.14723 12.1967L2.83386 12.1878C1.41618 12.1878 0.945641 13.1253 0.945641 13.8025C0.945641 15.0004 1.88874 15.7035 3.72287 15.6045C4.39393 19.0483 5.0672 22.0973 5.73518 25.5473H20.8578C21.7557 20.9598 22.5805 16.8108 23.4722 12.2201C20.4557 12.1877 17.5077 12.1877 15.2145 12.1877H15.121C13.7033 12.1877 13.2335 13.2317 13.2307 13.8284C13.2279 14.4252 13.7033 15.6186 15.121 15.6186H19.7293C19.2851 17.9092 18.8377 20.1983 18.3872 22.4858H8.13677C7.47204 19.0639 6.80889 15.6342 6.14723 12.1967Z" fill="url(#paint2_linear_392_4600)"></path> <path d="M7.6277 30C8.67177 30 9.51803 29.1604 9.51803 28.125C9.51803 27.0894 8.67177 26.2499 7.6277 26.2499C6.58373 26.2499 5.73737 27.0894 5.73737 28.125C5.73737 29.1604 6.58373 30 7.6277 30Z" fill="url(#paint3_linear_392_4600)"></path> <path d="M18.9025 30C19.9465 30 20.7928 29.1604 20.7928 28.125C20.7928 27.0894 19.9465 26.2499 18.9025 26.2499C17.8585 26.2499 17.0122 27.0894 17.0122 28.125C17.0122 29.1604 17.8585 30 18.9025 30Z" fill="url(#paint4_linear_392_4600)"></path> <defs> <linearGradient id="paint0_linear_392_4600" x1="9.41857" y1="0.0468712" x2="14.2824" y2="13.0527" gradientUnits="userSpaceOnUse"> <stop stop-color="#FECC2E"></stop> <stop offset="0.63" stop-color="#F49739"></stop> <stop offset="1" stop-color="#F7A934"></stop> </linearGradient> <linearGradient id="paint1_linear_392_4600" x1="20.0218" y1="-0.435938" x2="24.8607" y2="13.8522" gradientUnits="userSpaceOnUse"> <stop stop-color="#36AC57"></stop> <stop offset="0.25" stop-color="#21975A"></stop> <stop offset="1" stop-color="#067C5F"></stop> </linearGradient> <linearGradient id="paint2_linear_392_4600" x1="3.60853" y1="15.0004" x2="19.9775" y2="36.9253" gradientUnits="userSpaceOnUse"> <stop stop-color="#4EB76A"></stop> <stop offset="0.300679" stop-color="#1A925A"></stop> <stop offset="1" stop-color="#01795E"></stop> </linearGradient> <linearGradient id="paint3_linear_392_4600" x1="4.08337" y1="25.3124" x2="9.00709" y2="30.04" gradientUnits="userSpaceOnUse"> <stop stop-color="#34AC55"></stop> <stop offset="0.182292" stop-color="#18905A"></stop> <stop offset="1" stop-color="#037B5E"></stop> </linearGradient> <linearGradient id="paint4_linear_392_4600" x1="15.3581" y1="25.3124" x2="20.2818" y2="30.04" gradientUnits="userSpaceOnUse"> <stop stop-color="#34AC55"></stop> <stop offset="0.182292" stop-color="#18905A"></stop> <stop offset="1" stop-color="#037B5E"></stop> </linearGradient> </defs> </svg> 