<?xml version="1.0" encoding="UTF-8"?> <svg xmlns="http://www.w3.org/2000/svg" width="50" height="50" viewBox="0 0 50 50" fill="none"> <path d="M24.9977 49.9999C38.6931 49.9999 49.9998 38.7015 49.9998 25.0163C49.9998 11.3554 38.6733 0.0371094 24.9779 0.0371094C11.3068 0.0371094 0 11.3554 0 25.0163C0 38.7015 11.3266 49.9999 24.9977 49.9999Z" fill="#0A84FF"></path> <path d="M13.8237 34.7334H16.7991C18.3645 34.7334 19.2049 33.9264 19.2049 32.4381V23.4231C19.2049 21.9347 18.3645 21.1191 16.7991 21.1191H13.8237C12.2688 21.1191 11.4284 21.9347 11.4284 23.4268V32.4381C11.4284 33.9264 12.2688 34.7334 13.8237 34.7334Z" fill="white"></path> <path d="M23.5036 34.733H26.4876C28.0529 34.733 28.8847 33.926 28.8847 32.4377V20.3608C28.8847 18.8725 28.0529 18.0569 26.4876 18.0569H23.5036C21.9486 18.0569 21.1082 18.8725 21.1082 20.3646V32.4377C21.1082 33.926 21.9486 34.733 23.5036 34.733Z" fill="white"></path> <path d="M33.1835 34.7334H36.1674C37.731 34.7334 38.5714 33.9264 38.5714 32.438V17.3039C38.5714 15.8156 37.731 15 36.1674 15H33.1835C31.6372 15 30.7967 15.8156 30.7967 17.3058V32.438C30.7967 33.9264 31.6372 34.7334 33.1835 34.7334Z" fill="white"></path> </svg> 