<?xml version="1.0" encoding="UTF-8"?> <svg xmlns="http://www.w3.org/2000/svg" width="50" height="50" viewBox="0 0 50 50" fill="none"> <path d="M24.9978 49.9845C38.6933 49.9845 50 38.6648 50 24.9923C50 11.2999 38.6734 0 24.978 0C11.3068 0 0 11.2999 0 24.9923C0 38.6648 11.3267 49.9845 24.9978 49.9845Z" fill="#0A84FF"></path> <path d="M22.3992 32.7043C16.6531 32.7043 11.9346 27.9757 11.9346 22.2421C11.9346 16.4886 16.6531 11.7512 22.3992 11.7512C28.154 11.7512 32.8682 16.4687 32.8682 22.2421C32.8682 24.2972 32.2342 26.2357 31.1907 27.8262L37.2639 33.9379C37.7364 34.4256 38.0026 35.0233 38.0026 35.645C38.0026 37.0469 37.0491 38.0598 35.6953 38.0598C34.9301 38.0598 34.3323 37.7959 33.7848 37.2331L27.7141 31.1922C26.1604 32.1275 24.3381 32.7043 22.3992 32.7043ZM22.3992 28.9663C26.0724 28.9663 29.1052 25.9187 29.1052 22.2421C29.1052 18.5257 26.0724 15.498 22.3992 15.498C18.7106 15.498 15.6735 18.5456 15.6735 22.2421C15.6735 25.9187 18.7106 28.9663 22.3992 28.9663Z" fill="white"></path> </svg> 