<?xml version="1.0" standalone="no"?>
<!DOCTYPE svg PUBLIC "-//W3C//DTD SVG 20010904//EN"
 "http://www.w3.org/TR/2001/REC-SVG-20010904/DTD/svg10.dtd">
<svg version="1.0" xmlns="http://www.w3.org/2000/svg"
 width="500.000000pt" height="500.000000pt" viewBox="0 0 500.000000 500.000000"
 preserveAspectRatio="xMidYMid meet">
<metadata>
Created by potrace 1.14, written by Peter Selinger 2001-2017
</metadata>
<g transform="translate(0.000000,500.000000) scale(0.100000,-0.100000)"
fill="#000000" stroke="none">
<path d="M2305 4979 c-328 -27 -630 -111 -925 -259 -740 -370 -1243 -1079
-1356 -1910 -23 -168 -23 -472 0 -640 53 -387 181 -733 390 -1050 380 -578
973 -967 1661 -1092 117 -21 159 -23 425 -23 266 0 308 2 425 23 1044 189
1850 993 2035 2032 28 155 39 548 21 712 -129 1134 -1023 2045 -2151 2192
-152 20 -389 27 -525 15z m917 -833 c190 -29 354 -61 374 -74 19 -12 25 -47
12 -64 -9 -11 -64 -27 -164 -47 -372 -76 -609 -179 -900 -392 -164 -120 -305
-315 -349 -484 -20 -77 -19 -106 4 -188 39 -143 138 -228 381 -330 44 -18 300
-101 360 -117 92 -23 308 -94 380 -124 229 -97 388 -245 428 -396 19 -73 26
-158 14 -173 -5 -7 -13 -33 -16 -59 -8 -55 -64 -171 -118 -244 -155 -211 -482
-404 -868 -514 -125 -35 -378 -80 -451 -80 -16 0 -29 -4 -29 -9 0 -6 -76 -10
-180 -10 -104 0 -180 4 -180 10 0 5 -15 9 -32 9 -85 0 -366 46 -475 77 -43 12
-54 19 -59 40 -8 31 24 63 62 63 44 0 268 51 379 87 119 38 279 104 372 154
268 145 495 368 581 571 23 55 26 77 27 173 0 103 -2 113 -29 163 -43 77 -136
159 -238 209 -91 46 -315 126 -463 167 -381 105 -544 179 -682 310 -66 62 -91
94 -118 151 -33 68 -35 78 -35 176 0 90 4 114 29 180 124 335 602 642 1149
740 65 11 135 24 157 29 72 14 572 11 677 -4z m-53 -755 c80 -30 134 -81 175
-163 33 -65 36 -78 36 -157 0 -74 -4 -94 -29 -148 -37 -77 -91 -132 -167 -168
-170 -81 -377 -7 -461 163 -25 50 -28 68 -28 152 0 76 4 104 21 141 80 171
273 249 453 180z m-1083 -1131 c227 -110 259 -423 61 -583 -63 -51 -128 -72
-222 -72 -71 0 -89 4 -147 33 -122 60 -191 170 -192 307 -1 128 58 236 164
301 102 62 226 67 336 14z"/>
</g>
</svg>
